{"title":"Cast Away-720p MP4 AAC x264 BRRip 2000-CC","uid":7739812,"size":3428265227,"categoryP":"video","categoryS":"hd___movies","magnet":"?xt=urn:btih:8f78f87fb6abe5d0a4354e1ee19269ae8725b44c&amp;dn=Cast+Away-720p+MP4+AAC+x264+BRRip+2000-CC&amp;tr=udp%3A%2F%2Ftracker.openbittorrent.com%3A80&amp;tr=udp%3A%2F%2Fopen.demonii.com%3A1337&amp;tr=udp%3A%2F%2Ftracker.coppersurfer.tk%3A6969&amp;tr=udp%3A%2F%2Fexodus.desync.com%3A6969","seeders":0,"leechers":1,"uploader":"Caveman44","files":-1,"time":1350594646,"description":" &lt;a href=&quot;http://www.imdb.com/title/tt0162222/&quot; rel=&quot;nofollow&quot; target=&quot;_NEW&quot;&gt;http://www.imdb.com/title/tt0162222/&lt;/a&gt;\n\nSource: Cast.Away.2000.720p.BluRay.DTS.x264-ESiR Thanks!\n\nSubs: Arabic, Brazilian, Bulgarian, Croatian, Danish, Dutch, English, Estonian, French, Hebrew, Hungarian, Indonesian, Italian, Norwegian, Persian, Polish, Portuguese, Romanian, Servian, Slovenian, Spanish, Swedish, Turkish and Vietnamese.\n\nSample and Screens included.\n\nGeneral\nComplete name                            : Cast Away-720p MP4 AAC x264 BRRip 2000-CC.mp4\nFormat                                   : MPEG-4\nFormat profile                           : Base Media\nCodec ID                                 : isom\nFile size                                : 3.16 GiB\nDuration                                 : 2h 23mn\nOverall bit rate mode                    : Variable\nOverall bit rate                         : 3 143 Kbps\nEncoded date                             : UTC 2012-10-08 14:53:00\n\nVideo\nID                                       : 1\nFormat                                   : AVC\nFormat/Info                              : Advanced Video Codec\nFormat profile                           : &lt;a class=&quot;__cf_email__&quot; href=&quot;/cdn-cgi/l/email-protection&quot; data-cfemail=&quot;99d1f0fef1d9d5adb7a8&quot;&gt;[email&amp;#160;protected]&lt;/a&gt;&lt;script cf-hash='f9e31' type=&quot;text/javascript&quot;&gt;\n/* &lt;![CDATA[ */!function(){try{var t=&quot;currentScript&quot;in document?document.currentScript:function(){for(var t=document.getElementsByTagName(&quot;script&quot;),e=t.length;e--;)if(t[e].getAttribute(&quot;cf-hash&quot;))return t[e]}();if(t&amp;&amp;t.previousSibling){var e,r,n,i,c=t.previousSibling,a=c.getAttribute(&quot;data-cfemail&quot;);if(a){for(e=&quot;&quot;,r=parseInt(a.substr(0,2),16),n=2;a.length-n;n+=2)i=parseInt(a.substr(n,2),16)^r,e+=String.fromCharCode(i);e=document.createTextNode(e),c.parentNode.replaceChild(e,c)}}}catch(u){}}();/* ]]&gt; */&lt;/script&gt;\nFormat settings, CABAC                   : Yes\nFormat settings, ReFrames                : 5 frames\nCodec ID                                 : avc1\nCodec ID/Info                            : Advanced Video Coding\nDuration                                 : 2h 23mn\nBit rate                                 : 2 801 Kbps\nMaximum bit rate                         : 14.9 Mbps\nWidth                                    : 1 280 pixels\nHeight                                   : 688 pixels\nDisplay aspect ratio                     : 1.85:1\nOriginal display aspect ratio            : 1.85:1\nFrame rate mode                          : Variable\nFrame rate                               : 23.976 fps\nMinimum frame rate                       : 19.048 fps\nMaximum frame rate                       : 24.390 fps\nColor space                              : YUV\nChroma subsampling                       : 4:2:0\nBit depth                                : 8 bits\nScan type                                : Progressive\nBits/(Pixel*Frame)                       : 0.133\nStream size                              : 2.77 GiB (88%)\nWriting library                          : x264 core 112\n\nAudio\nID                                       : 2\nFormat                                   : AAC\nFormat/Info                              : Advanced Audio Codec\nFormat profile                           : LC\nCodec ID                                 : 40\nDuration                                 : 2h 23mn\nBit rate mode                            : Variable\nBit rate                                 : 384 Kbps\nMaximum bit rate                         : 666 Kbps\nChannel(s)                               : 6 channels\nChannel positions                        : Front: L C R, Side: L R, LFE\nSampling rate                            : 48.0 KHz\nCompression mode                         : Lossy\nDelay relative to video                  : 83ms\nStream size                              : 395 MiB (12%)\nLanguage                                 : English\n\nEnjoy...\n\nRequested by iamharski.\n\nComing up soon: Hard Candy, Meet Joe Black, The Sting, Cat Run, Sunset Blvd and more...","torrent":{"xt":"urn:btih:8f78f87fb6abe5d0a4354e1ee19269ae8725b44c","amp;dn":"Cast+Away-720p+MP4+AAC+x264+BRRip+2000-CC","amp;tr":["udp%3A%2F%2Ftracker.openbittorrent.com%3A80","udp%3A%2F%2Fopen.demonii.com%3A1337","udp%3A%2F%2Ftracker.coppersurfer.tk%3A6969","udp%3A%2F%2Fexodus.desync.com%3A6969"],"infoHash":"8f78f87fb6abe5d0a4354e1ee19269ae8725b44c","infoHashBuffer":{"type":"Buffer","data":[143,120,248,127,182,171,229,208,164,53,78,30,225,146,105,174,135,37,180,76]},"announce":[],"urlList":[]}}